# xmcd
#
# Track frame offsets: 
#        150
#        16474
#        31755
#        48992
#        65316
#        79684
#        96139
#        112463
#        130874
#        147459
#        162479
#        178543
#        193693
#        206235
#        218907
#
# Disc length: 3129 seconds
#
# Revision: 2
# Processed by: cddbd v1.5.2PL0 Copyright (c) Steve Scherf et al.
# Submitted via: ExactAudioCopy v0.99pb5
#
DISCID=dd0c370f
DTITLE=JONNY HILL - SOLANG´ DEIN TRAUM DICH TRÄGT
DYEAR=2001
DGENRE=Country
TTITLE0=Das Mädchen Hinter´m Tresen
TTITLE1=Der Junge Und Die Träume
TTITLE2=Tränen Vergehen
TTITLE3=In Dieser Nacht Sind Wir Geborgen
TTITLE4=Wer Wie Ich Viel Unterwegs War
TTITLE5=Meine Liebe Ist Bei Dir Zu Haus
TTITLE6=Uns´re Kleine Band
TTITLE7=Du Weisst Nicht Was Schmerz Ist
TTITLE8=Liebe, Die In Träumen Lebt
TTITLE9=Ich War Immer Schon Fast Oben
TTITLE10=Hey, Barkeeper
TTITLE11=Niemals Mehr
TTITLE12=Idole Und Freunde
TTITLE13=Es War Schön
TTITLE14=Solang´ Dein Traum Dich Trägt 
EXTD=
EXTT0=
EXTT1=
EXTT2=
EXTT3=
EXTT4=
EXTT5=
EXTT6=
EXTT7=
EXTT8=
EXTT9=
EXTT10=
EXTT11=
EXTT12=
EXTT13=
EXTT14=
PLAYORDER=
